<svg width="25" height="25" viewBox="0 0 25 25" fill="none" xmlns="http://www.w3.org/2000/svg">
  <path
    d="M12.5 0.5C14.0913 0.5 15.6174 1.13214 16.7426 2.25736C17.8679 3.38258 18.5 4.9087 18.5 6.5C18.5 8.0913 17.8679 9.61742 16.7426 10.7426C15.6174 11.8679 14.0913 12.5 12.5 12.5C10.9087 12.5 9.38258 11.8679 8.25736 10.7426C7.13214 9.61742 6.5 8.0913 6.5 6.5C6.5 4.9087 7.13214 3.38258 8.25736 2.25736C9.38258 1.13214 10.9087 0.5 12.5 0.5ZM12.5 3.5C11.7044 3.5 10.9413 3.81607 10.3787 4.37868C9.81607 4.94129 9.5 5.70435 9.5 6.5C9.5 7.29565 9.81607 8.05871 10.3787 8.62132C10.9413 9.18393 11.7044 9.5 12.5 9.5C13.2956 9.5 14.0587 9.18393 14.6213 8.62132C15.1839 8.05871 15.5 7.29565 15.5 6.5C15.5 5.70435 15.1839 4.94129 14.6213 4.37868C14.0587 3.81607 13.2956 3.5 12.5 3.5ZM12.5 14C16.505 14 24.5 15.995 24.5 20V24.5H0.5V20C0.5 15.995 8.495 14 12.5 14ZM12.5 16.85C8.045 16.85 3.35 19.04 3.35 20V21.65H21.65V20C21.65 19.04 16.955 16.85 12.5 16.85Z"
    fill="white" />
</svg>