<?xml version="1.0" encoding="UTF-8"?>
<svg id="_Слой_2" data-name="Слой 2" xmlns="http://www.w3.org/2000/svg" viewBox="0 0 1080 211.02">
  <defs>
    <style>
      .cls-1 {
        fill: #d6ce97;
        stroke-width: 0px;
      }
    </style>
  </defs>
  <g id="_Слой_1-2" data-name="Слой 1">
    <g>
      <path class="cls-1" d="m0,208.22l41.87-90.6c-.75-2.61-1.33-4.81-1.75-6.58-.42-1.77-.63-3.12-.63-4.06,0-2.24,1.17-4.67,3.5-7.28,2.33-2.61,6.16-5.83,11.48-9.66L91.71,9.25h13.16l-32.63,71.13c19.42-11.85,35.75-23.59,49.01-35.22,13.25-11.62,24.04-23.59,32.35-35.92h12.74c-6.72,13.26-18.09,26.95-34.1,41.1-16.01,14.14-39,30.64-68.96,49.5l-7.98,16.94c9.61,17.92,21.07,34.89,34.38,50.9,13.3,16.01,27.74,30.18,43.34,42.5h-16.1c-10.27-8.4-20.51-18.64-30.74-30.73-10.22-12.09-22.52-28.68-36.9-49.78L13.16,208.22H0Z"/>
      <path class="cls-1" d="m508.37,171.46c-4.53,2.47-8.39,3.71-11.58,3.71h-.56c5.06-7.34,8.99-14.84,11.84-22.41,2.85-7.57,4.27-14.13,4.27-19.75,0-4.65-1.12-8.54-3.41-11.62-2.32-3.07-5.17-4.61-8.62-4.61-5.7,0-11.32,4.08-16.9,12.25-5.55,8.17-8.32,17.16-8.32,26.94,0,3.82.56,7.57,1.69,11.2,1.12,3.63,2.85,7.38,5.17,11.2-6.14,7.19-11.65,12.48-16.45,15.89-4.8,3.41-9.25,5.13-13.38,5.13-4.46,0-8.32-2.21-11.54-6.67-3.22-4.42-4.83-9.85-4.83-16.3,0-9.7,3.07-19.86,9.18-30.46,6.11-10.6,13.86-19.03,23.31-25.29,3.82-2.51,8.62-5.02,14.43-7.53,5.77-2.55,8.69-4.95,8.69-7.31,0-1.27-.37-2.4-1.12-3.26-.75-.9-1.69-1.35-2.81-1.35-2.62,0-6.82,1.2-12.59,3.63-5.81,2.44-11.17,5.43-16.11,8.96-11.02,8.06-19.6,17.57-25.78,28.59-3.22,5.81-5.62,11.69-7.12,17.72-5.17,4.08-9.52,6.97-13.11,8.73-4.35,2.14-8.51,3.22-12.51,3.22-3.56,0-6.63-.71-9.25-2.17-2.62-1.46-4.5-3.48-5.58-6.07,6.33-10.08,11.32-19.9,14.91-29.41,3.56-9.52,5.36-17.31,5.36-23.38,0-1.61-.3-2.96-.9-4.08-.6-1.12-1.31-1.69-2.17-1.69-3.75,0-8.51,5.55-14.35,16.6-5.85,11.09-10.15,24.06-12.96,39.01-8.09,12.21-15.92,21.77-23.42,28.55-7.53,6.82-13.94,10.23-19.26,10.23-1.42,0-2.44-.3-3.11-.9-.64-.6-.97-1.57-.97-2.89,0-1.57.86-4.61,2.55-9.1.64-1.65,1.16-3.03,1.54-4.05l16.37-45.38c.45-1.39,1.16-3.26,2.1-5.58,2.25-5.88,3.37-9.59,3.37-11.09,0-1.39-.34-2.47-1.01-3.26-.64-.79-1.46-1.2-2.51-1.2-2.89,0-7.49,4.65-13.79,13.94s-11.73,16.67-16.3,22.18c-11.77,13.9-21.66,24.73-29.71,32.49-8.02,7.76-13.34,11.62-15.96,11.62-.71,0-1.35-.26-1.8-.82-.49-.56-.71-1.31-.71-2.25,0-.82.34-2.14.97-3.86.67-1.72,2.17-5.25,4.5-10.57l30.95-71.68h-11.77l-11.5,25.74c-1.01,2.36-4.38,6.33-10.08,11.92s-12.25,11.2-19.75,16.79v.37c-11.95,9.52-21.84,17.05-29.75,22.67-8.81,6.29-13.98,9.44-15.47,9.44-.45,0-.86-.26-1.24-.82-.37-.56-.56-1.16-.56-1.84,0-.34.15-.97.41-1.8.26-.86.6-1.72.97-2.66l27.02-57.96-11.2-1.12c-19.3,28.29-33.35,47.14-42.08,56.58-8.69,9.4-15.92,14.13-21.62,14.13-4.57,0-8.24-1.87-10.98-5.66-2.77-3.78-4.12-8.96-4.12-15.47,0-5.62,1.24-11.32,3.71-17.16,2.47-5.85,6-11.43,10.57-16.75,7.19-8.28,16.52-15.14,27.99-20.57,11.5-5.4,22.44-8.13,32.9-8.13,4.38,0,8.54.64,12.4,1.84,3.86,1.2,7.76,3.11,11.69,5.73l.56-10.9c-3.63-2.25-7.38-3.86-11.2-4.83-3.82-.97-8.21-1.5-13.15-1.5-11.95,0-24.32,3.03-37.13,9.1-12.78,6.07-23.83,14.2-33.16,24.39-5.51,6.14-9.63,12.44-12.33,18.81-2.7,6.41-4.05,13.15-4.05,20.23,0,9.63,2.21,17.42,6.71,23.38,4.5,5.99,10.27,8.95,17.35,8.95s13.71-2.88,20.68-8.73c6.93-5.85,15.1-15.7,24.43-29.6l-9.25,20.83c-1.2,2.81-2.14,5.25-2.81,7.31-.64,2.02-.97,3.52-.97,4.46,0,1.87.56,3.45,1.69,4.68,1.12,1.27,2.36,1.91,3.78,1.91,6.52,0,26.23-12.74,59.09-38.22l.75-.56c2.44-1.46,4.91-3.22,7.49-5.25,3.18-2.47,6.56-5.36,10.08-8.62l-12.85,27.73c-1.24,2.7-2.14,5.21-2.74,7.49-.6,2.29-.94,4.2-.94,5.81,0,3.26.97,5.92,2.89,7.98,1.91,2.06,4.38,3.07,7.34,3.07,6.07,0,14.46-4.83,25.22-14.5,10.72-9.67,22.74-23.16,35.97-40.54l-11.2,30.13c-1.09,3.07-1.91,5.66-2.44,7.76-.52,2.1-.79,3.82-.79,5.13,0,3.52,1.42,6.37,4.27,8.54,2.85,2.14,6.52,3.18,11.02,3.18,7.19,0,14.84-3.03,22.97-9.14,8.09-6.11,16.79-15.4,26.04-27.8,2.62,2.89,5.47,5.06,8.62,6.52,3.11,1.42,6.56,2.17,10.27,2.17,4.57,0,9.67-1.16,15.21-3.52,3.48-1.46,6.78-3.26,9.85-5.4-.08,1.24-.11,2.47-.11,3.71,0,10.27,2.32,18.43,7.04,24.43,4.72,6.03,11.05,9.03,19,9.03,6.07,0,12.33-2.06,18.81-6.22,6.48-4.16,13.41-10.45,20.8-18.96.49.08,1.09.19,1.84.26,2.06.19,3.45.3,4.2.3,4.2,0,8.81-1.24,13.86-3.71,5.02-2.47,11.43-6.82,19.18-12.96v-11.35c-8.88,6.82-15.59,11.47-20.08,13.94Zm-19.56-2.59c-1.12-2.32-1.91-4.53-2.36-6.63-.49-2.1-.75-4.27-.86-6.52,0-6.37,1.35-12.33,4.08-17.95,2.7-5.58,5.36-8.39,7.98-8.39,1.12,0,2.1.56,3,1.69.9,1.12,1.35,2.4,1.35,3.78,0,3.26-1.12,7.83-3.37,13.71-2.25,5.88-5.51,12.66-9.82,20.31Z"/>
      <path class="cls-1" d="m627.73,80.66l-4.9,7.14c-18.76-10.17-33.54-20.82-44.32-31.93-10.78-11.11-16.17-21-16.17-29.68,0-6.07,1.89-10.8,5.67-14.21,3.78-3.41,9.03-5.11,15.75-5.11,11.76,0,24.62,4.2,38.58,12.6,13.95,8.4,28.73,20.86,44.32,37.39,1.87-3.08,3.8-5.95,5.81-8.61,2.01-2.66,4.08-5.06,6.23-7.21l9.24,6.02c-2.15,2.89-4.22,5.93-6.23,9.1-2.01,3.17-3.85,6.44-5.53,9.8,14,15.22,24.67,30.01,31.99,44.39,7.33,14.38,10.99,27.58,10.99,39.62,0,19.14-6.91,33.96-20.72,44.46-13.82,10.5-33.37,15.75-58.67,15.75-6.07,0-13.05-.35-20.93-1.05-7.89-.7-16.69-1.75-26.39-3.15-10.36,1.59-18.69,2.69-25,3.29-6.3.6-11.74.91-16.31.91-8.4,0-14.56-.77-18.48-2.31s-5.88-3.99-5.88-7.35c0-2.61,1.35-4.81,4.06-6.58,2.71-1.77,6.21-2.66,10.5-2.66,2.61,0,9.24.77,19.88,2.31,10.64,1.54,19.98,2.31,28,2.31h2.1c8.4-7.09,16.01-15.7,22.82-25.83,6.81-10.13,13.53-22.85,20.16-38.16l27.72-64.83c-14.66-15.87-28.99-28.28-42.99-37.25-14-8.96-25.86-13.44-35.57-13.44-3.74,0-6.58.89-8.54,2.66-1.96,1.77-2.94,4.43-2.94,7.98,0,6.63,5.04,14.84,15.12,24.64,10.08,9.8,23.62,19.46,40.61,28.99Zm-21.56,116.36c4.11.38,8.4.65,12.88.84,4.48.19,9.29.28,14.42.28,14.56,0,25.74-.84,33.54-2.52,7.79-1.68,14.49-4.48,20.09-8.4,6.16-4.39,10.94-9.92,14.35-16.59,3.41-6.67,5.11-13.84,5.11-21.49,0-9.71-3.15-20.75-9.45-33.12-6.3-12.37-15.19-24.94-26.67-37.73l-26.46,61.05c-6.54,15.22-12.72,27.23-18.55,36.06-5.83,8.82-12.25,16.03-19.25,21.63Z"/>
      <path class="cls-1" d="m1045.9,184.76c-8.81,6.29-13.98,9.44-15.47,9.44-.45,0-.9-.26-1.24-.82-.37-.56-.56-1.16-.56-1.84,0-.34.11-.97.41-1.8.26-.86.6-1.72.97-2.66l27.02-57.96-11.2-1.12c-19.3,28.29-33.35,47.14-42.08,56.58-8.73,9.4-15.92,14.13-21.62,14.13-4.57,0-8.24-1.87-10.98-5.66-2.77-3.78-4.16-8.96-4.16-15.47,0-5.62,1.24-11.32,3.71-17.16,2.47-5.85,6-11.43,10.57-16.75,7.19-8.28,16.52-15.14,28.03-20.57,11.47-5.4,22.44-8.13,32.9-8.13,4.38,0,8.51.64,12.4,1.84,3.86,1.2,7.76,3.11,11.69,5.73l.56-10.9c-3.63-2.25-7.38-3.86-11.2-4.83-3.82-.97-8.21-1.5-13.15-1.5-11.95,0-24.32,3.03-37.13,9.1-12.78,6.07-23.83,14.2-33.16,24.39-5.51,6.14-9.63,12.44-12.33,18.81-.26.6-.49,1.2-.67,1.8l-10.12,7.79c-25.78,20.27-40.84,30.39-45.23,30.39-1.76,0-3.26-1.12-4.5-3.37-1.2-2.21-1.8-5.13-1.8-8.66,0-1.8.07-3.6.26-5.47.19-1.87.49-3.78.86-5.73,8.47-11.32,16.6-24.13,24.28-38.52,7.72-14.39,14.91-30.09,21.62-47.17,6.44-16.52,11.39-31.29,14.88-44.33,3.45-13.04,5.17-23.23,5.17-30.61,0-4.27-.49-7.64-1.46-10.08-1.01-2.4-2.44-3.63-4.27-3.63-6,0-14.09,9.4-24.32,28.14-10.23,18.77-20.46,43.5-30.72,74.23h-.56c-21.84,0-40.54,7.34-56.09,21.99-11.77,11.09-19.07,23.64-21.92,37.66-19.97,15.81-34.1,25.93-42.41,30.46-8.88,4.8-16.79,7.19-23.79,7.19-6.18,0-10.83-1.76-14.01-5.32-3.18-3.52-4.76-8.77-4.76-15.66,0-1.42.11-2.89.34-4.42.26-1.54.6-2.81,1.05-3.86.94.11,1.87.19,2.81.22s2.44.08,4.5.08c18.66,0,34.58-5.1,47.81-15.21,13.19-10.12,19.82-21.62,19.82-34.51,0-4.95-1.61-8.81-4.83-11.54-3.22-2.77-7.72-4.16-13.53-4.16-6.82,0-14.39,2.29-22.74,6.82-8.36,4.53-16.64,10.83-24.84,18.96-7.38,7.38-12.96,15.03-16.75,22.97-3.78,7.94-5.66,15.96-5.66,24.09,0,10.27,2.55,18.17,7.61,23.72,5.1,5.55,12.33,8.32,21.66,8.32,8.02,0,16.75-2.44,26.19-7.42,8.54-4.5,21.96-13.9,40.2-28.18-.04.45-.04.86-.04,1.31,0,10.64,2.21,19.03,6.67,25.14,4.42,6.11,10.53,9.14,18.25,9.14,4.87,0,10.34-1.84,16.41-5.51,6.03-3.71,13.11-9.52,21.13-17.42v2.66c0,6.82,1.05,11.88,3.15,15.25s5.25,5.02,9.44,5.02c6.18,0,23.91-11.32,53.21-34.02l3.86-2.89c-.15,1.5-.22,3.03-.22,4.57,0,9.63,2.25,17.42,6.74,23.38,4.46,5.99,10.27,8.95,17.35,8.95s13.71-2.88,20.65-8.73c6.97-5.85,15.1-15.7,24.43-29.6l-9.22,20.83c-1.24,2.81-2.17,5.25-2.81,7.31-.64,2.02-.97,3.52-.97,4.46,0,1.87.56,3.45,1.69,4.68,1.12,1.27,2.36,1.91,3.78,1.91,6.52,0,26.23-12.74,59.09-38.22l3.48-2.66v-11.5c-13.9,11.13-25.25,19.82-34.1,26.12Zm-276.82-56.62c10.49-8.62,19.48-12.89,26.94-12.89,2.62,0,4.72.64,6.26,1.95,1.54,1.31,2.29,3.07,2.29,5.32,0,8.32-5.43,16.79-16.37,25.4-10.9,8.66-22.86,12.96-35.86,12.96-1.57,0-3.11-.04-4.61-.15-1.5-.08-3-.23-4.46-.41,6.71-12.89,15.32-23.61,25.82-32.19Zm155.98-54.63c8.92-23.34,18.1-41.52,27.5-54.59-.37,14.46-5.13,34.02-14.28,58.64-9.14,24.65-21.1,49.08-35.82,73.25,6.14-28.18,13.68-53.96,22.59-77.3Zm-36.34,95.36c-9.22,10.38-16.82,17.87-22.74,22.56-5.92,4.65-10.79,7.01-14.61,7.01-4.61,0-8.32-2.17-11.17-6.52-2.85-4.35-4.27-10.12-4.27-17.31,0-15.29,6.56-29.34,19.63-42.15,13.04-12.78,27.95-19.18,44.66-19.18h.56c-3.63,13.38-6.37,24.24-8.21,32.64-1.8,8.39-3.11,16.07-3.86,22.97Z"/>
    </g>
  </g>
</svg>